<svg xmlns="http://www.w3.org/2000/svg" width="63" height="78" viewBox="0 0 63 78" fill="none">
            <path d="M60.6309 44.1409V5.66443C60.6309 3.64062 58.9903 2 56.9664 2H5.66443C3.64062 2 2 3.64062 2 5.66443V71.6242C2 73.648 3.64062 75.2886 5.66443 75.2886H25.8188" stroke="white" stroke-width="4" stroke-linecap="round" stroke-linejoin="round"/>
            <path d="M18.49 16.6577H44.141" stroke="white" stroke-width="3" stroke-linecap="round" stroke-linejoin="round"/>
            <path d="M18.49 31.3154H44.141" stroke="white" stroke-width="3" stroke-linecap="round" stroke-linejoin="round"/>
            <path d="M18.49 45.9732H29.4833" stroke="white" stroke-width="3" stroke-linecap="round" stroke-linejoin="round"/>
            <path d="M58.7988 75.2886L52.4511 68.9409M52.4511 68.9409C54.1091 67.2831 55.1344 64.9928 55.1344 62.4631C55.1344 57.4036 51.0328 53.302 45.9733 53.302C40.9139 53.302 36.8123 57.4036 36.8123 62.4631C36.8123 67.5226 40.9139 71.6242 45.9733 71.6242C48.5031 71.6242 50.7933 70.5989 52.4511 68.9409Z" stroke="white" stroke-width="3" stroke-linecap="round" stroke-linejoin="round"/>
            </svg>