<svg xmlns="http://www.w3.org/2000/svg" width="76" height="62" viewBox="0 0 76 62" fill="none">
  <path d="M70.4099 2H5.60052C3.61201 2 2 3.61201 2 5.60052V56.0078C2 57.9963 3.61201 59.6083 5.60052 59.6083H70.4099C72.3984 59.6083 74.0104 57.9963 74.0104 56.0078V5.60052C74.0104 3.61201 72.3984 2 70.4099 2Z" stroke="white" stroke-width="3" stroke-linejoin="round"/>
  <path d="M25.4034 32.6044C29.3804 32.6044 32.6045 29.3803 32.6045 25.4034C32.6045 21.4264 29.3804 18.2023 25.4034 18.2023C21.4265 18.2023 18.2024 21.4264 18.2024 25.4034C18.2024 29.3803 21.4265 32.6044 25.4034 32.6044Z" stroke="white" stroke-width="3" stroke-linejoin="round"/>
  <path d="M36.2049 43.406C36.2049 37.4405 31.3689 32.6044 25.4034 32.6044C19.4378 32.6044 14.6018 37.4405 14.6018 43.406" stroke="white" stroke-width="3" stroke-linecap="round" stroke-linejoin="round"/>
  <path d="M45.2063 23.6031H59.6084" stroke="white" stroke-width="3" stroke-linecap="round" stroke-linejoin="round"/>
  <path d="M48.8066 38.0052H59.6082" stroke="white" stroke-width="3" stroke-linecap="round" stroke-linejoin="round"/>
</svg>