<svg xmlns="http://www.w3.org/2000/svg" width="88" height="108" viewBox="0 0 88 108" fill="none">
  <path d="M83.6308 61.2346V8.97692C83.6308 6.22824 81.4026 4 78.6538 4H8.97692C6.22824 4 4 6.22824 4 8.97692V98.5615C4 101.31 6.22824 103.538 8.97692 103.538H36.35" stroke="white" stroke-width="7" stroke-linecap="round" stroke-linejoin="round"/>
  <path d="M26.3962 23.9077H61.2346" stroke="white" stroke-width="7" stroke-linecap="round" stroke-linejoin="round"/>
  <path d="M26.3962 43.8154H61.2346" stroke="white" stroke-width="7" stroke-linecap="round" stroke-linejoin="round"/>
  <path d="M26.3962 63.723H41.3269" stroke="white" stroke-width="7" stroke-linecap="round" stroke-linejoin="round"/>
  <path d="M81.1423 103.538L72.521 94.9171M72.521 94.9171C74.7728 92.6656 76.1654 89.555 76.1654 86.1192C76.1654 79.2475 70.5947 73.6769 63.7231 73.6769C56.8514 73.6769 51.2808 79.2475 51.2808 86.1192C51.2808 92.9908 56.8514 98.5615 63.7231 98.5615C67.1589 98.5615 70.2695 97.1689 72.521 94.9171Z" stroke="white" stroke-width="5" stroke-linecap="round" stroke-linejoin="round"/>
</svg>